<?xml version="1.0" standalone="no"?><!DOCTYPE svg PUBLIC "-//W3C//DTD SVG 1.1//EN" "http://www.w3.org/Graphics/SVG/1.1/DTD/svg11.dtd"><svg t="1525422315019" class="icon" style="" viewBox="0 0 1024 1024" version="1.1" xmlns="http://www.w3.org/2000/svg" p-id="2462" xmlns:xlink="http://www.w3.org/1999/xlink" width="32" height="32"><defs><style type="text/css"></style></defs><path d="M698.5 450c71.8 0 130-58.2 130-130s-58.2-130-130-130-130 58.2-130 130 58.2 130 130 130z m0-220c49.6 0 90 40.4 90 90s-40.4 90-90 90-90-40.4-90-90 40.4-90 90-90zM594 704.2L259.2 369.4 144 484.7v56.5L259.2 426l306.5 306.5z" fill="" p-id="2463"></path><path d="M64 64v896h896V64H64z m856 856H104V104h816v816z" fill="" p-id="2464"></path><path d="M880 776.8L700.8 597.5 418.2 880.1h56.6l226-226L880 833.3z" fill="" p-id="2465"></path></svg>